# xmcd
#
# Track frame offsets: 
#        150
#        14792
#        32435
#        44280
#        55685
#        72087
#        87905
#        102160
#        122442
#        136145
#        150195
#        162277
#        174435
#        186740
#
# Disc length: 2723 seconds
#
# Revision: 0
# Processed by: cddbd v1.5.2PL0 Copyright (c) Steve Scherf et al.
# Submitted via: ExactAudioCopyFreeDBPlugin 1.0
#
DISCID=ac0aa10e
DTITLE=Vários - Som de Valente: Balançando Geral [RGE ARPE 0709-1]
DYEAR=1988
DGENRE=Samba
TTITLE0=Juca Chaves - Take Me Back to Piauí
TTITLE1=Jorge Ben - Katarina, Katarina
TTITLE2=Erasmo Carlos - Deixa de Banca
TTITLE3=Jorge Ben and Toquinho - Que Maravilha
TTITLE4=Azymuth - Vôo Sobre o Horizonte
TTITLE5=Erasmo Carlos - Johnny Furacão
TTITLE6=Toquinho - Zana
TTITLE7=Trama e os Pagodeiros do Largo do Estácio - Malandro, Venha De
TTITLE7=vagar
TTITLE8=Erasmo Carlos - Estou Dez Anos Atrasado
TTITLE9=Jorge Ben and Toquinho - Carolina, Carol Bela
TTITLE10=Trama e os Pagodeiros do Largo do Estácio - Balanço do Navio
TTITLE11=Azymuth - Linha do Horizonte
TTITLE12=Chocolate da Bahia - Roda de Samba
TTITLE13=Tom Zé - Jeitinho Dela
EXTD=
EXTT0=
EXTT1=
EXTT2=
EXTT3=
EXTT4=
EXTT5=
EXTT6=
EXTT7=
EXTT8=
EXTT9=
EXTT10=
EXTT11=
EXTT12=
EXTT13=
PLAYORDER=
